<svg width="28" height="28" viewBox="0 0 28 28" fill="none" xmlns="http://www.w3.org/2000/svg">
<path d="M12.9482 4.43768H6.31392C4.11553 4.43768 2.33337 6.21977 2.33337 8.4181V21.6863C2.33337 23.8846 4.11553 25.6667 6.31392 25.6667H19.5824C21.7808 25.6667 23.563 23.8846 23.563 21.6863L23.563 15.0522M8.96762 19.0326L13.7951 18.0599C14.0514 18.0082 14.2867 17.882 14.4715 17.6971L25.2783 6.88473C25.7965 6.36633 25.7961 5.52603 25.2776 5.00807L22.9883 2.72146C22.4699 2.20371 21.63 2.20406 21.1121 2.72224L10.3042 13.5358C10.1197 13.7203 9.99377 13.9551 9.94208 14.2109L8.96762 19.0326Z" stroke="black" stroke-width="2" stroke-linecap="round" stroke-linejoin="round"/>
</svg>
