<svg width="28" height="28" viewBox="0 0 28 28" fill="none" xmlns="http://www.w3.org/2000/svg">
<path fill-rule="evenodd" clip-rule="evenodd" d="M19.1549 7.54837H19.3938C22.5345 7.54837 25.0834 10.1734 25.0834 13.3934V19.8334C25.0834 23.0534 22.5345 25.6667 19.3938 25.6667H8.60634C5.46569 25.6667 2.91675 23.0534 2.91675 19.8334V13.3934C2.91675 10.1734 5.46569 7.54837 8.60634 7.54837H8.84531C8.86807 6.14837 9.40289 4.84171 10.3701 3.86171C11.3487 2.87004 12.6004 2.36837 14.0115 2.33337C16.8335 2.33337 19.1207 4.66671 19.1549 7.54837ZM11.5649 5.11004C10.9277 5.76337 10.5749 6.62671 10.5522 7.54837H17.448C17.4138 5.63504 15.889 4.08337 14.0115 4.08337C13.1353 4.08337 12.2249 4.44504 11.5649 5.11004ZM18.3242 12.04C18.8021 12.04 19.1776 11.6434 19.1776 11.165V9.81171C19.1776 9.33337 18.8021 8.93671 18.3242 8.93671C17.8576 8.93671 17.4707 9.33337 17.4707 9.81171V11.165C17.4707 11.6434 17.8576 12.04 18.3242 12.04ZM10.427 11.165C10.427 11.6434 10.0515 12.04 9.57358 12.04C9.10703 12.04 8.72014 11.6434 8.72014 11.165V9.81171C8.72014 9.33337 9.10703 8.93671 9.57358 8.93671C10.0515 8.93671 10.427 9.33337 10.427 9.81171V11.165Z" fill="#BCBCBC"/>
</svg>
