<svg width="28" height="28" viewBox="0 0 28 28" fill="none" xmlns="http://www.w3.org/2000/svg">
<g clip-path="url(#clip0_40_367)">
<path fill-rule="evenodd" clip-rule="evenodd" d="M7.52604 0.625113C8.0093 1.29799 7.85556 2.23521 7.1827 2.71845C5.88918 3.64743 4.83526 4.87083 4.10798 6.28759C3.38068 7.70435 3.0009 9.27381 3 10.8664C2.99954 11.6948 2.32758 12.366 1.49915 12.3655C0.670724 12.365 -0.000468605 11.6931 2.45481e-07 10.8647C0.00117183 8.79619 0.49445 6.75769 1.43909 4.91753C2.38372 3.07737 3.75262 1.48837 5.4327 0.281763C6.10556 -0.201485 7.0428 -0.0477624 7.52604 0.625113ZM7.63604 5.13615C9.32386 3.44833 11.6131 2.50011 14 2.50011C16.3869 2.50011 18.6761 3.44833 20.364 5.13615C22.0518 6.82397 23 9.11317 23 11.5001V18.5001C23 19.0306 23.2108 19.5393 23.5858 19.9143C23.9608 20.2893 24.4696 20.5001 25 20.5001C25.5522 20.5001 26 20.9479 26 21.5001C26 22.0523 25.5522 22.5001 25 22.5001H3C2.44772 22.5001 2 22.0523 2 21.5001C2 20.9479 2.44772 20.5001 3 20.5001C3.53044 20.5001 4.03914 20.2893 4.41422 19.9143C4.78928 19.5393 5 19.0306 5 18.5001V11.5001C5 9.11317 5.94822 6.82397 7.63604 5.13615ZM10.5 26.5001C10.5 25.6717 11.1716 25.0001 12 25.0001H16C16.8284 25.0001 17.5 25.6717 17.5 26.5001C17.5 27.3285 16.8284 28.0001 16 28.0001H12C11.1716 28.0001 10.5 27.3285 10.5 26.5001ZM22.5674 0.281763C21.8944 -0.201485 20.9572 -0.0477624 20.474 0.625113C19.9907 1.29799 20.1444 2.23521 20.8174 2.71845C22.1108 3.64743 23.1648 4.87083 23.892 6.28759C24.6194 7.70435 24.9992 9.27381 25 10.8664C25.0004 11.6948 25.6724 12.366 26.5008 12.3655C27.3292 12.365 28.0004 11.6931 28 10.8647C27.9988 8.79619 27.5056 6.75769 26.561 4.91753C25.6162 3.07737 24.2474 1.48837 22.5674 0.281763Z" fill="black"/>
</g>
<defs>
<clipPath id="clip0_40_367">
<rect width="28" height="28" fill="white"/>
</clipPath>
</defs>
</svg>
